<svg width="143" height="32" viewBox="0 0 143 32" fill="none" xmlns="http://www.w3.org/2000/svg">
<circle r="11.5" transform="matrix(1 0 0 -1 20 15)" fill="#E44332" stroke="#E44332"/>
<path d="M24.8984 18.4649C24.1507 19.522 23.0811 20.3088 21.8493 20.7079C20.6176 21.107 19.2898 21.0969 18.0642 20.6792C16.8387 20.2614 15.7812 19.4585 15.0496 18.3902C14.318 17.3219 13.9516 16.0456 14.0051 14.7519C14.0587 13.4583 14.5292 12.2166 15.3466 11.2124C16.1639 10.2082 17.2842 9.49539 18.54 9.18033C19.7959 8.86528 21.12 8.96493 22.3145 9.4644C23.5091 9.96387 24.5101 10.8364 25.1679 11.9516L20 15L24.8984 18.4649Z" fill="#FEF7F7"/>
<path d="M44.64 13.9279H42.576V11.2399H44.64V7.63989H47.784V11.2399H50.664V13.9279H47.784V18.4879C47.784 18.7599 47.808 19.0159 47.856 19.2559C47.92 19.4799 48.032 19.6719 48.192 19.8319C48.416 20.0879 48.736 20.2159 49.152 20.2159C49.424 20.2159 49.64 20.1919 49.8 20.1439C49.96 20.0799 50.112 19.9999 50.256 19.9039L51.144 22.6639C50.776 22.8399 50.376 22.9679 49.944 23.0479C49.528 23.1439 49.064 23.1919 48.552 23.1919C47.96 23.1919 47.424 23.1039 46.944 22.9279C46.48 22.7359 46.088 22.4799 45.768 22.1599C45.016 21.4399 44.64 20.4159 44.64 19.0879V13.9279Z" fill="black"/>
<path d="M58.4276 10.8559C59.3396 10.8559 60.1716 11.0159 60.9236 11.3359C61.6916 11.6399 62.3476 12.0719 62.8916 12.6319C63.4516 13.1759 63.8836 13.8319 64.1876 14.5999C64.5076 15.3679 64.6676 16.2079 64.6676 17.1199C64.6676 18.0319 64.5076 18.8719 64.1876 19.6399C63.8836 20.4079 63.4516 21.0719 62.8916 21.6319C62.3476 22.1759 61.6916 22.6079 60.9236 22.9279C60.1716 23.2319 59.3396 23.3839 58.4276 23.3839C57.5156 23.3839 56.6756 23.2319 55.9076 22.9279C55.1556 22.6079 54.4996 22.1759 53.9396 21.6319C53.3956 21.0719 52.9636 20.4079 52.6436 19.6399C52.3396 18.8719 52.1876 18.0319 52.1876 17.1199C52.1876 16.2079 52.3396 15.3679 52.6436 14.5999C52.9636 13.8319 53.3956 13.1759 53.9396 12.6319C54.4996 12.0719 55.1556 11.6399 55.9076 11.3359C56.6756 11.0159 57.5156 10.8559 58.4276 10.8559ZM58.4276 20.4799C58.8276 20.4799 59.2116 20.4079 59.5796 20.2639C59.9636 20.1039 60.2996 19.8799 60.5876 19.5919C60.8756 19.3039 61.0996 18.9519 61.2596 18.5359C61.4356 18.1199 61.5236 17.6479 61.5236 17.1199C61.5236 16.5919 61.4356 16.1199 61.2596 15.7039C61.0996 15.2879 60.8756 14.9359 60.5876 14.6479C60.2996 14.3599 59.9636 14.1439 59.5796 13.9999C59.2116 13.8399 58.8276 13.7599 58.4276 13.7599C58.0116 13.7599 57.6196 13.8399 57.2516 13.9999C56.8836 14.1439 56.5556 14.3599 56.2676 14.6479C55.9796 14.9359 55.7476 15.2879 55.5716 15.7039C55.4116 16.1199 55.3316 16.5919 55.3316 17.1199C55.3316 17.6479 55.4116 18.1199 55.5716 18.5359C55.7476 18.9519 55.9796 19.3039 56.2676 19.5919C56.5556 19.8799 56.8836 20.1039 57.2516 20.2639C57.6196 20.4079 58.0116 20.4799 58.4276 20.4799Z" fill="black"/>
<path d="M66.4746 11.2399H69.4266V12.6559H69.6186C69.9066 12.1599 70.3546 11.7359 70.9626 11.3839C71.5706 11.0319 72.3226 10.8559 73.2186 10.8559C73.9706 10.8559 74.6826 11.0159 75.3546 11.3359C76.0426 11.6399 76.6426 12.0719 77.1546 12.6319C77.6826 13.1759 78.0986 13.8319 78.4026 14.5999C78.7066 15.3679 78.8586 16.2079 78.8586 17.1199C78.8586 18.0319 78.7066 18.8719 78.4026 19.6399C78.0986 20.4079 77.6826 21.0719 77.1546 21.6319C76.6426 22.1759 76.0426 22.6079 75.3546 22.9279C74.6826 23.2319 73.9706 23.3839 73.2186 23.3839C72.3226 23.3839 71.5706 23.2079 70.9626 22.8559C70.3546 22.5039 69.9066 22.0799 69.6186 21.5839H69.4266L69.6186 23.2639V28.1839H66.4746V11.2399ZM72.5706 20.4799C72.9866 20.4799 73.3786 20.3999 73.7466 20.2399C74.1306 20.0799 74.4666 19.8559 74.7546 19.5679C75.0426 19.2799 75.2745 18.9279 75.4506 18.5119C75.6265 18.0959 75.7146 17.6319 75.7146 17.1199C75.7146 16.6079 75.6265 16.1439 75.4506 15.7279C75.2745 15.3119 75.0426 14.9599 74.7546 14.6719C74.4666 14.3839 74.1306 14.1599 73.7466 13.9999C73.3786 13.8399 72.9866 13.7599 72.5706 13.7599C72.1546 13.7599 71.7546 13.8399 71.3706 13.9999C71.0026 14.1439 70.6746 14.3599 70.3866 14.6479C70.0986 14.9359 69.8666 15.2879 69.6906 15.7039C69.5146 16.1199 69.4266 16.5919 69.4266 17.1199C69.4266 17.6479 69.5146 18.1199 69.6906 18.5359C69.8666 18.9519 70.0986 19.3039 70.3866 19.5919C70.6746 19.8799 71.0026 20.1039 71.3706 20.2639C71.7546 20.4079 72.1546 20.4799 72.5706 20.4799Z" fill="black"/>
<path d="M80.7502 11.2399H83.7022V12.7759H83.8942C84.2622 12.1999 84.7582 11.7359 85.3822 11.3839C86.0222 11.0319 86.7262 10.8559 87.4942 10.8559C88.3902 10.8559 89.1422 11.0639 89.7502 11.4799C90.3582 11.8959 90.7902 12.4079 91.0462 13.0159C91.4142 12.4239 91.9342 11.9199 92.6062 11.5039C93.2782 11.0719 94.0942 10.8559 95.0542 10.8559C95.7742 10.8559 96.3982 10.9759 96.9262 11.2159C97.4542 11.4399 97.8862 11.7599 98.2222 12.1759C98.5742 12.5919 98.8382 13.0959 99.0142 13.6879C99.1902 14.2639 99.2782 14.8959 99.2782 15.5839V22.9999H96.1342V16.1599C96.1342 14.5599 95.4782 13.7599 94.1662 13.7599C93.7502 13.7599 93.3822 13.8559 93.0622 14.0479C92.7422 14.2239 92.4702 14.4719 92.2462 14.7919C92.0382 15.0959 91.8702 15.4639 91.7422 15.8959C91.6302 16.3279 91.5742 16.7919 91.5742 17.2879V22.9999H88.4302V16.1599C88.4302 14.5599 87.7422 13.7599 86.3662 13.7599C85.9662 13.7599 85.6142 13.8559 85.3102 14.0479C85.0062 14.2239 84.7502 14.4719 84.5422 14.7919C84.3342 15.0959 84.1742 15.4639 84.0622 15.8959C83.9502 16.3279 83.8942 16.7919 83.8942 17.2879V22.9999H80.7502V11.2399Z" fill="black"/>
<path d="M108.998 21.7519H108.806C108.438 22.1999 107.99 22.5839 107.462 22.9039C106.95 23.2239 106.286 23.3839 105.47 23.3839C104.862 23.3839 104.286 23.2799 103.742 23.0719C103.214 22.8799 102.75 22.6079 102.35 22.2559C101.95 21.9039 101.638 21.4799 101.414 20.9839C101.19 20.4879 101.078 19.9439 101.078 19.3519C101.078 18.7439 101.198 18.1999 101.438 17.7199C101.678 17.2239 102.014 16.7999 102.446 16.4479C102.878 16.0959 103.382 15.8319 103.958 15.6559C104.55 15.4639 105.19 15.3679 105.878 15.3679C106.646 15.3679 107.278 15.4319 107.774 15.5599C108.27 15.6719 108.678 15.7919 108.998 15.9199V15.5599C108.998 14.9359 108.75 14.4239 108.254 14.0239C107.758 13.6079 107.142 13.3999 106.406 13.3999C105.318 13.3999 104.398 13.8559 103.646 14.7679L101.366 13.2079C102.614 11.6399 104.318 10.8559 106.478 10.8559C108.302 10.8559 109.694 11.2879 110.654 12.1519C111.614 12.9999 112.094 14.2639 112.094 15.9439V22.9999H108.998V21.7519ZM108.998 18.2239C108.63 18.0479 108.246 17.9119 107.846 17.8159C107.462 17.7039 107.038 17.6479 106.574 17.6479C105.822 17.6479 105.238 17.8159 104.822 18.1519C104.422 18.4719 104.222 18.8719 104.222 19.3519C104.222 19.8319 104.414 20.2159 104.798 20.5039C105.198 20.7919 105.654 20.9359 106.166 20.9359C106.582 20.9359 106.966 20.8639 107.318 20.7199C107.67 20.5599 107.966 20.3599 108.206 20.1199C108.462 19.8639 108.654 19.5759 108.782 19.2559C108.926 18.9199 108.998 18.5759 108.998 18.2239Z" fill="black"/>
<path d="M115.656 13.9279H113.592V11.2399H115.656V7.63989H118.8V11.2399H121.68V13.9279H118.8V18.4879C118.8 18.7599 118.824 19.0159 118.872 19.2559C118.936 19.4799 119.048 19.6719 119.208 19.8319C119.432 20.0879 119.752 20.2159 120.168 20.2159C120.44 20.2159 120.656 20.1919 120.816 20.1439C120.976 20.0799 121.128 19.9999 121.272 19.9039L122.16 22.6639C121.792 22.8399 121.392 22.9679 120.96 23.0479C120.544 23.1439 120.08 23.1919 119.568 23.1919C118.976 23.1919 118.44 23.1039 117.96 22.9279C117.496 22.7359 117.104 22.4799 116.784 22.1599C116.032 21.4399 115.656 20.4159 115.656 19.0879V13.9279Z" fill="black"/>
<path d="M135.011 20.1679C134.467 21.1279 133.731 21.9039 132.803 22.4959C131.891 23.0879 130.771 23.3839 129.443 23.3839C128.547 23.3839 127.715 23.2319 126.947 22.9279C126.195 22.6079 125.539 22.1679 124.979 21.6079C124.419 21.0479 123.979 20.3919 123.659 19.6399C123.355 18.8719 123.203 18.0319 123.203 17.1199C123.203 16.2719 123.355 15.4719 123.659 14.7199C123.963 13.9519 124.387 13.2879 124.931 12.7279C125.475 12.1519 126.115 11.6959 126.851 11.3599C127.603 11.0239 128.427 10.8559 129.323 10.8559C130.267 10.8559 131.107 11.0159 131.843 11.3359C132.579 11.6399 133.195 12.0719 133.691 12.6319C134.187 13.1759 134.563 13.8239 134.819 14.5759C135.075 15.3279 135.203 16.1439 135.203 17.0239C135.203 17.1359 135.203 17.2319 135.203 17.3119C135.187 17.4079 135.179 17.4959 135.179 17.5759C135.163 17.6559 135.155 17.7439 135.155 17.8399H126.299C126.363 18.3199 126.491 18.7359 126.683 19.0879C126.891 19.4239 127.139 19.7119 127.427 19.9519C127.731 20.1759 128.059 20.3439 128.411 20.4559C128.763 20.5519 129.123 20.5999 129.491 20.5999C130.211 20.5999 130.803 20.4399 131.267 20.1199C131.747 19.7839 132.123 19.3679 132.395 18.8719L135.011 20.1679ZM132.155 15.6079C132.139 15.3999 132.067 15.1679 131.939 14.9119C131.827 14.6559 131.651 14.4159 131.411 14.1919C131.187 13.9679 130.899 13.7839 130.547 13.6399C130.211 13.4959 129.803 13.4239 129.323 13.4239C128.651 13.4239 128.059 13.6159 127.547 13.9999C127.035 14.3839 126.675 14.9199 126.467 15.6079H132.155Z" fill="black"/>
</svg>
